<svg width="103" height="26" viewBox="0 0 103 26" fill="none" xmlns="http://www.w3.org/2000/svg">
<path d="M17.4453 8.66406C17.25 8.03125 16.9805 7.46484 16.6367 6.96484C16.3008 6.45703 15.8945 6.02344 15.418 5.66406C14.9492 5.30469 14.4102 5.03516 13.8008 4.85547C13.1914 4.66797 12.5273 4.57422 11.8086 4.57422C10.5195 4.57422 9.37109 4.89844 8.36328 5.54688C7.35547 6.19531 6.5625 7.14844 5.98438 8.40625C5.41406 9.65625 5.12891 11.1797 5.12891 12.9766C5.12891 14.7891 5.41406 16.3242 5.98438 17.582C6.55469 18.8398 7.34766 19.7969 8.36328 20.4531C9.37891 21.1016 10.5586 21.4258 11.9023 21.4258C13.1211 21.4258 14.1758 21.1914 15.0664 20.7227C15.9648 20.2539 16.6563 19.5898 17.1406 18.7305C17.625 17.8633 17.8672 16.8477 17.8672 15.6836L18.8516 15.8359H12.3359V12.4375H22.0742V15.3203C22.0742 17.375 21.6367 19.1523 20.7617 20.6523C19.8867 22.1523 18.6836 23.3086 17.1523 24.1211C15.6211 24.9258 13.8633 25.3281 11.8789 25.3281C9.66797 25.3281 7.72656 24.832 6.05469 23.8398C4.39063 22.8398 3.08984 21.4219 2.15234 19.5859C1.22266 17.7422 0.757813 15.5547 0.757813 13.0234C0.757813 11.0859 1.03125 9.35547 1.57812 7.83203C2.13281 6.30859 2.90625 5.01562 3.89844 3.95312C4.89063 2.88281 6.05469 2.07031 7.39063 1.51562C8.72656 0.953124 10.1797 0.671874 11.75 0.671874C13.0781 0.671874 14.3164 0.867187 15.4648 1.25781C16.6133 1.64062 17.6328 2.1875 18.5234 2.89844C19.4219 3.60937 20.1602 4.45312 20.7383 5.42969C21.3164 6.40625 21.6953 7.48437 21.875 8.66406H17.4453ZM31.9146 25.3516C30.1099 25.3516 28.5513 24.9766 27.2388 24.2266C25.9341 23.4687 24.9302 22.3984 24.2271 21.0156C23.5239 19.625 23.1724 17.9883 23.1724 16.1055C23.1724 14.2539 23.5239 12.6289 24.2271 11.2305C24.938 9.82422 25.9302 8.73047 27.2036 7.94922C28.4771 7.16016 29.9732 6.76563 31.6919 6.76563C32.8013 6.76563 33.8482 6.94531 34.8325 7.30469C35.8247 7.65625 36.6997 8.20312 37.4575 8.94531C38.2232 9.6875 38.8247 10.6328 39.2622 11.7812C39.6997 12.9219 39.9185 14.2812 39.9185 15.8594V17.1602H25.1646V14.3008H35.8521C35.8443 13.4883 35.6685 12.7656 35.3247 12.1328C34.981 11.4922 34.5005 10.9883 33.8833 10.6211C33.2739 10.2539 32.563 10.0703 31.7505 10.0703C30.8833 10.0703 30.1216 10.2812 29.4654 10.7031C28.8091 11.1172 28.2974 11.6641 27.9302 12.3437C27.5708 13.0156 27.3872 13.7539 27.3794 14.5586V17.0547C27.3794 18.1016 27.5708 19 27.9536 19.75C28.3364 20.4922 28.8716 21.0625 29.5591 21.4609C30.2466 21.8516 31.0513 22.0469 31.9732 22.0469C32.5904 22.0469 33.1489 21.9609 33.6489 21.7891C34.1489 21.6094 34.5825 21.3477 34.9497 21.0039C35.3169 20.6602 35.5943 20.2344 35.7818 19.7266L39.7427 20.1719C39.4927 21.2187 39.0161 22.1328 38.313 22.9141C37.6177 23.6875 36.7271 24.2891 35.6411 24.7187C34.5552 25.1406 33.313 25.3516 31.9146 25.3516ZM45.6045 14.4531V25H41.3623V7H45.417V10.0586H45.628C46.042 9.05078 46.7022 8.25 47.6084 7.65625C48.5225 7.0625 49.6514 6.76563 50.9952 6.76563C52.2373 6.76563 53.3194 7.03125 54.2412 7.5625C55.1709 8.09375 55.8897 8.86328 56.3975 9.87109C56.9131 10.8789 57.167 12.1016 57.1592 13.5391V25H52.917V14.1953C52.917 12.9922 52.6045 12.0508 51.9795 11.3711C51.3623 10.6914 50.5069 10.3516 49.4131 10.3516C48.6709 10.3516 48.0108 10.5156 47.4327 10.8437C46.8623 11.1641 46.4131 11.6289 46.085 12.2383C45.7647 12.8477 45.6045 13.5859 45.6045 14.4531ZM64.5064 25.3633C63.3658 25.3633 62.3384 25.1602 61.4244 24.7539C60.5181 24.3398 59.7994 23.7305 59.2681 22.9258C58.7447 22.1211 58.483 21.1289 58.483 19.9492C58.483 18.9336 58.6705 18.0937 59.0455 17.4297C59.4205 16.7656 59.9322 16.2344 60.5806 15.8359C61.2291 15.4375 61.9595 15.1367 62.772 14.9336C63.5923 14.7227 64.44 14.5703 65.315 14.4766C66.3697 14.3672 67.2252 14.2695 67.8814 14.1836C68.5377 14.0898 69.0142 13.9492 69.3111 13.7617C69.6158 13.5664 69.7681 13.2656 69.7681 12.8594V12.7891C69.7681 11.9063 69.5064 11.2227 68.983 10.7383C68.4595 10.2539 67.7056 10.0117 66.7212 10.0117C65.6822 10.0117 64.858 10.2383 64.2486 10.6914C63.647 11.1445 63.2408 11.6797 63.0298 12.2969L59.0689 11.7344C59.3814 10.6406 59.897 9.72656 60.6158 8.99219C61.3345 8.25 62.2134 7.69531 63.2525 7.32812C64.2916 6.95312 65.44 6.76563 66.6978 6.76563C67.565 6.76563 68.4283 6.86719 69.2877 7.07031C70.147 7.27344 70.9322 7.60937 71.6431 8.07812C72.3541 8.53906 72.9244 9.16797 73.3541 9.96484C73.7916 10.7617 74.0103 11.7578 74.0103 12.9531V25H69.9322V22.5273H69.7916C69.5337 23.0273 69.1705 23.4961 68.7017 23.9336C68.2408 24.3633 67.6587 24.7109 66.9556 24.9766C66.2603 25.2344 65.4439 25.3633 64.5064 25.3633ZM65.608 22.2461C66.4595 22.2461 67.1978 22.0781 67.8228 21.7422C68.4478 21.3984 68.9283 20.9453 69.2642 20.3828C69.608 19.8203 69.7798 19.207 69.7798 18.543V16.4219C69.647 16.5312 69.4205 16.6328 69.1002 16.7266C68.7877 16.8203 68.4361 16.9023 68.0455 16.9727C67.6548 17.043 67.2681 17.1055 66.8853 17.1602C66.5025 17.2148 66.1705 17.2617 65.8892 17.3008C65.2564 17.3867 64.69 17.5273 64.19 17.7227C63.69 17.918 63.2955 18.1914 63.0064 18.543C62.7173 18.8867 62.5728 19.332 62.5728 19.8789C62.5728 20.6602 62.858 21.25 63.4283 21.6484C63.9986 22.0469 64.7252 22.2461 65.608 22.2461ZM79.4005 25H74.7598L83.2091 0.999999H88.5762L97.0372 25H92.3966L85.9864 5.92188H85.7989L79.4005 25ZM79.5528 15.5898H92.2091V19.082H79.5528V15.5898ZM102.401 0.999999V25H98.0533V0.999999H102.401Z" fill="black"/>
</svg>
